<?xml version="1.0" encoding="UTF-8" standalone="no"?>
<!-- Created with Inkscape (http://www.inkscape.org/) -->

<svg
   xmlns:dc="http://purl.org/dc/elements/1.1/"
   xmlns:cc="http://creativecommons.org/ns#"
   xmlns:rdf="http://www.w3.org/1999/02/22-rdf-syntax-ns#"
   xmlns:svg="http://www.w3.org/2000/svg"
   xmlns="http://www.w3.org/2000/svg"
   xmlns:sodipodi="http://sodipodi.sourceforge.net/DTD/sodipodi-0.dtd"
   xmlns:inkscape="http://www.inkscape.org/namespaces/inkscape"
   width="149.88301mm"
   height="122.76302mm"
   viewBox="0 0 149.88301 122.76302"
   version="1.1"
   id="svg8"
   inkscape:version="0.92+devel unknown"
   sodipodi:docname="logo.svg">
  <defs
     id="defs2">
    <inkscape:perspective
       sodipodi:type="inkscape:persp3d"
       inkscape:vp_x="0 : 148.49999 : 1"
       inkscape:vp_y="0 : 999.99993 : 0"
       inkscape:vp_z="209.99999 : 148.49999 : 1"
       inkscape:persp3d-origin="105 : 98.999993 : 1"
       id="perspective4581" />
  </defs>
  <sodipodi:namedview
     id="base"
     pagecolor="#ffffff"
     bordercolor="#666666"
     borderopacity="1.0"
     inkscape:pageopacity="0.0"
     inkscape:pageshadow="2"
     inkscape:zoom="1.4142136"
     inkscape:cx="223.87957"
     inkscape:cy="237.70667"
     inkscape:document-units="mm"
     inkscape:current-layer="layer1"
     inkscape:document-rotation="0"
     showgrid="false"
     inkscape:snap-to-guides="false"
     inkscape:snap-grids="false"
     inkscape:snap-others="false"
     inkscape:object-nodes="false"
     inkscape:snap-global="false"
     inkscape:window-width="1920"
     inkscape:window-height="1016"
     inkscape:window-x="0"
     inkscape:window-y="27"
     inkscape:window-maximized="1" />
  <metadata
     id="metadata5">
    <rdf:RDF>
      <cc:Work
         rdf:about="">
        <dc:format>image/svg+xml</dc:format>
        <dc:type
           rdf:resource="http://purl.org/dc/dcmitype/StillImage" />
        <dc:title />
      </cc:Work>
    </rdf:RDF>
  </metadata>
  <g
     inkscape:label="Layer 1"
     inkscape:groupmode="layer"
     id="layer1"
     transform="translate(-33.114869,-7.9530072)">
    <g
       id="g4327"
       style="fill:#3777e6;fill-opacity:1">
      <path
         sodipodi:nodetypes="cccccccccccccccccccccc"
         inkscape:connector-curvature="0"
         id="path61-6"
         d="m 139.85719,47.197317 c 9.1355,8.872755 13.85307,42.10114 11.20919,61.710603 16.2965,-3.7101 30.43132,-6.08523 30.43132,-6.08523 L 174.03444,90.017546 182.99788,79.372388 171.14517,67.456063 181.91248,54.475114 166.38617,45.448921 175.69286,30.166983 157.30428,26.435572 152.80602,9.9238543 137.05163,19.870851 122.97039,7.9530072 115.23029,23.212047 99.790545,13.522852 92.50506,29.359276 76.552089,19.264556 71.709374,36.156239 57.151588,27.16865 55.097523,46.738889 c 0,0 6.511284,13.375853 9.250312,17.853518 32.988248,-15.047681 57.745525,-16.360272 75.509355,-17.39509 z"
         style="fill:#3777e6;fill-opacity:1;stroke:none;stroke-width:0.26458332px;stroke-linecap:butt;stroke-linejoin:miter;stroke-opacity:1" />
    </g>
    <path
       style="fill:#d20d1d;fill-opacity:1;stroke:none;stroke-width:0.27152741px;stroke-linecap:butt;stroke-linejoin:miter;stroke-opacity:1"
       d="M 62.631425,68.9141 C 81.443359,56.555456 127.84465,48.64894 137.76958,51.072415 c 6.812,1.659178 15.63769,43.29451 9.41812,63.038045 -0.48146,2.93836 -42.41953,-4.32123 -72.211932,1.92072 -6.282533,-10.19433 -8.333869,-9.40526 -3.48267,-22.842574 C 65.528177,77.58181 58.991244,78.559963 62.631425,68.9141 Z"
       id="path4350"
       inkscape:connector-curvature="0"
       sodipodi:nodetypes="cccccc" />
    <path
       style="fill:none;fill-opacity:1;stroke:none;stroke-width:0.26458332px;stroke-linecap:butt;stroke-linejoin:miter;stroke-opacity:1"
       d="m 62.260766,67.789635 c 47.587064,-21.86909 68.952204,-20.88899 85.074634,-11.73921 16.12243,9.14979 12.23826,56.307665 8.07476,57.370465 10.31506,1.77424 19.28325,-25.828535 19.13475,-37.612895 -0.1485,-11.78435 8.13051,-35.42571 -14.77415,-51.59191 -22.90466,-16.1661997 -74.155555,4.28065 -83.979934,10.85161 -19.00076,12.70851 -25.307162,15.4663 -13.53006,32.72194 z"
       id="path61"
       inkscape:connector-curvature="0"
       sodipodi:nodetypes="czczzsc" />
    <ellipse
       style="fill:#000000;fill-opacity:1;fill-rule:evenodd;stroke:none;stroke-width:0.26696214;stroke-opacity:1"
       id="path82-5"
       ry="9.4987097"
       rx="8.8707628"
       cy="76.774513"
       cx="83.714828" />
    <ellipse
       style="fill:#eeecf9;fill-opacity:1;fill-rule:evenodd;stroke:none;stroke-width:0.21376134;stroke-opacity:1"
       id="path82"
       ry="7.8300653"
       rx="6.8995237"
       cy="77.46891"
       cx="83.235725" />
    <path
       style="fill:#000000;fill-opacity:1;stroke:#000000;stroke-width:0.36000323px;stroke-linecap:butt;stroke-linejoin:miter;stroke-opacity:1"
       d="m 71.392131,75.168352 c -0.08732,-5.258796 6.417157,-6.121635 10.307181,-7.614636 9.373683,-2.435048 8.704973,-1.593392 18.513288,-1.669537 2.58832,0.476263 12.204,1.825917 12.204,1.825917 0,0 -24.478785,-0.656494 -33.608879,4.055181 -2.036551,1.087643 -5.360092,2.357459 -7.415592,3.403067 z"
       id="path69"
       inkscape:connector-curvature="0"
       sodipodi:nodetypes="ccccccc" />
    <ellipse
       style="fill:#000000;fill-opacity:1;stroke:#000000;stroke-width:0.48487705;stroke-opacity:1"
       id="path4346"
       cx="81.837616"
       cy="77.581497"
       rx="3.4769502"
       ry="3.6308739" />
    <path
       style="fill:#fbbe33;fill-opacity:1;stroke:none;stroke-width:0.30773449px;stroke-linecap:butt;stroke-linejoin:miter;stroke-opacity:1"
       d="m 96.750989,99.280411 c 2.468382,3.482709 3.077757,5.356389 0.492662,9.659499 -8.995186,-1.25434 -12.746343,-2.02357 -26.637025,-0.70703 -13.823361,1.31015 -26.988925,7.31885 -30.925464,8.74722 -0.606779,-11.37475 8.305385,-8.91731 21.14786,-12.08473 12.842474,-3.16743 30.165723,-3.81918 35.921967,-5.614959 z"
       id="path4365"
       inkscape:connector-curvature="0"
       sodipodi:nodetypes="ccsczc" />
    <path
       style="fill:#fbea14;fill-opacity:1;stroke:none;stroke-width:0.30773449px;stroke-linecap:butt;stroke-linejoin:miter;stroke-opacity:1"
       d="m 96.241059,101.67529 c 1.338718,4.10877 0.470668,4.99926 -0.19086,4.70094 -4.783341,-2.15706 -25.883062,-1.9791 -34.61596,0.16742 -8.732897,2.14651 -12.714906,3.6 -19.033788,6.44528 -2.583127,1.16314 -2.571245,10.27019 -2.805635,17.7271 -5.386529,-13.85209 -7.018947,-26.8991 -6.331555,-40.340219 10.000032,-6.028296 25.291527,-14.018956 29.699464,-14.224458 10.115342,10.627622 11.795494,26.248787 24.047271,26.780257 4.678283,-0.18306 5.105783,0.27085 9.231063,-1.25632 z"
       id="path4357"
       inkscape:connector-curvature="0"
       sodipodi:nodetypes="cszsccccc" />
    <path
       style="fill:#000000;fill-opacity:1;stroke:none;stroke-width:0.04169294px;stroke-linecap:butt;stroke-linejoin:miter;stroke-opacity:1"
       d="m 64.660716,85.693835 c -1.084365,-6.790949 -3.686976,-6.425639 -6.152856,-3.818083 0.281606,5.756467 2.160468,-1.437173 6.152856,3.818083 z"
       id="path4357-5"
       inkscape:connector-curvature="0"
       sodipodi:nodetypes="ccc" />
  </g>
</svg>
