<?xml version="1.0" encoding="UTF-8" standalone="no"?>
<!-- Created with Inkscape (http://www.inkscape.org/) -->

<svg
   xmlns:dc="http://purl.org/dc/elements/1.1/"
   xmlns:cc="http://creativecommons.org/ns#"
   xmlns:rdf="http://www.w3.org/1999/02/22-rdf-syntax-ns#"
   xmlns:svg="http://www.w3.org/2000/svg"
   xmlns="http://www.w3.org/2000/svg"
   xmlns:sodipodi="http://sodipodi.sourceforge.net/DTD/sodipodi-0.dtd"
   xmlns:inkscape="http://www.inkscape.org/namespaces/inkscape"
   width="152.57648mm"
   height="115.18884mm"
   viewBox="0 0 152.57648 115.18884"
   version="1.1"
   id="svg8"
   inkscape:version="0.92+devel unknown"
   sodipodi:docname="logo-pic.svg">
  <defs
     id="defs2">
    <inkscape:perspective
       sodipodi:type="inkscape:persp3d"
       inkscape:vp_x="0 : 148.49999 : 1"
       inkscape:vp_y="0 : 999.99995 : 0"
       inkscape:vp_z="210.00001 : 148.49999 : 1"
       inkscape:persp3d-origin="105.00001 : 98.999995 : 1"
       id="perspective4581" />
  </defs>
  <sodipodi:namedview
     id="base"
     pagecolor="#ffffff"
     bordercolor="#666666"
     borderopacity="1.0"
     inkscape:pageopacity="0.0"
     inkscape:pageshadow="2"
     inkscape:zoom="1"
     inkscape:cx="339.71263"
     inkscape:cy="149.07568"
     inkscape:document-units="mm"
     inkscape:current-layer="layer1"
     inkscape:document-rotation="0"
     showgrid="false"
     inkscape:snap-to-guides="false"
     inkscape:snap-grids="false"
     inkscape:snap-others="false"
     inkscape:object-nodes="false"
     inkscape:snap-global="false"
     inkscape:window-width="1920"
     inkscape:window-height="1016"
     inkscape:window-x="0"
     inkscape:window-y="27"
     inkscape:window-maximized="1" />
  <metadata
     id="metadata5">
    <rdf:RDF>
      <cc:Work
         rdf:about="">
        <dc:format>image/svg+xml</dc:format>
        <dc:type
           rdf:resource="http://purl.org/dc/dcmitype/StillImage" />
        <dc:title />
      </cc:Work>
    </rdf:RDF>
  </metadata>
  <g
     inkscape:label="Layer 1"
     inkscape:groupmode="layer"
     id="layer1"
     transform="translate(-28.293119,-13.040804)">
    <path
       style="fill:#0089ff;fill-opacity:1;stroke:none;stroke-width:0.26458332px;stroke-linecap:butt;stroke-linejoin:miter;stroke-opacity:1"
       d="m 97.991973,49.710677 c 15.438427,-4.286745 30.386107,-4.721082 40.899757,0.23676 10.51364,4.957841 15.17475,16.360579 16.20829,27.43696 1.03354,11.07639 -0.91663,22.864513 -2.34827,30.113413 1.51378,-1.22343 9.40123,-10.483599 10.71674,-11.831209 1.3155,-1.34761 2.11799,-6.47007 3.24169,-7.92349 1.1237,-1.45342 3.10238,5.56082 4.04073,4.01994 0.93836,-1.54088 -0.009,-11.91823 0.74999,-13.5282 0.75947,-1.609973 4.29376,6.45656 4.88081,4.79587 0.58704,-1.66069 -1.86405,-11.51457 -1.44294,-13.20763 0.42108,-1.693061 4.08738,5.570157 4.34896,3.863101 0.26158,-1.707063 -6.76787,-13.949145 -6.65933,-15.651848 0.10854,-1.702704 8.2791,6.095731 8.24106,4.415749 -0.038,-1.679981 -8.13694,-9.678286 -8.31509,-11.317183 -0.17816,-1.638898 3.62592,0.901811 8.06989,2.463553 -5.20327,-7.08089 -8.33177,-5.899335 -13.02826,-9.107143 -0.439,-1.50164 7.41694,-0.888724 6.85721,-2.294193 -1.93469,-4.013336 -12.93364,-7.423898 -17.05074,-7.569407 -0.67401,-1.290934 7.72649,-2.820799 6.94467,-3.978836 -3.44086,-3.326146 -16.38335,-4.864066 -17.26652,-5.870843 -4.01679,-1.137027 9.69081,-4.996388 5.88009,-5.651618 -3.81071,-0.655231 -21.44664,0.0426 -25.03827,-0.182061 -3.59164,-0.224656 6.58831,-6.02504 3.22876,-5.870346 -6.03813,-0.564907 -22.76814,6.719368 -25.88261,7.202188 -3.11447,0.482821 -0.37174,-7.777179 -3.22813,-7.017455 -2.856401,0.759724 -12.974177,8.490474 -15.559497,9.475878 -2.58531,0.985404 -1.967081,-8.466801 -4.268311,-7.306941 -2.30123,1.159861 -10.101832,11.186674 -10.212219,16.588962 -2.00415,1.283094 -3.483203,-3.976277 -4.171773,-12.252529 -6.661784,4.493867 -9.777044,33.71306 -16.755313,12.877148 0.06342,38.347713 14.846126,30.262371 16.726344,29.381436 1.880218,-0.880935 14.753863,-8.023282 30.192282,-12.310026 z"
       id="path61-6"
       inkscape:connector-curvature="0"
       sodipodi:nodetypes="zzcccccccccccccccccccccccccccczz" />
    <path
       style="fill:#d20d1d;fill-opacity:1;stroke:none;stroke-width:0.27152741px;stroke-linecap:butt;stroke-linejoin:miter;stroke-opacity:1"
       d="M 62.631425,68.9141 C 81.443359,56.555456 114.97984,45.320814 132.71714,51.296741 c 24.23007,7.974819 20.69013,43.070184 14.47056,62.813719 -1.60167,5.81432 -11.70414,-12.5819 -70.371386,5.72068 C 66.002579,111.59872 57.673507,105.02708 62.524706,91.589765 68.220077,81.224135 52.890325,79.725065 62.631425,68.9141 Z"
       id="path4350"
       inkscape:connector-curvature="0"
       sodipodi:nodetypes="cccccc" />
    <path
       style="fill:#fffff9;fill-opacity:0.57991644;stroke:none;stroke-width:0.09183749px;stroke-linecap:butt;stroke-linejoin:miter;stroke-opacity:1"
       d="M 65.365366,71.362697 C 72.141441,62.956729 93.146855,56.119838 105.1855,54.019978 117.22415,51.920117 130.02726,52.883145 130.59537,55.497484 106.90868,54.77214 80.938319,64.564515 65.365366,71.362697 Z"
       id="path4350-2"
       inkscape:connector-curvature="0"
       sodipodi:nodetypes="czcc" />
    <path
       style="fill:none;fill-opacity:1;stroke:none;stroke-width:0.26458332px;stroke-linecap:butt;stroke-linejoin:miter;stroke-opacity:1"
       d="m 62.260766,67.789635 c 47.587064,-21.86909 68.952204,-20.88899 85.074634,-11.73921 16.12243,9.14979 12.23826,56.307665 8.07476,57.370465 10.31506,1.77424 19.28325,-25.828535 19.13475,-37.612895 -0.1485,-11.78435 8.13051,-35.42571 -14.77415,-51.59191 -22.90466,-16.1661997 -74.155555,4.28065 -83.979934,10.85161 -19.00076,12.70851 -25.307162,15.4663 -13.53006,32.72194 z"
       id="path61"
       inkscape:connector-curvature="0"
       sodipodi:nodetypes="czczzsc" />
    <path
       style="fill:#ffffff;fill-opacity:0.72659302;stroke:none;stroke-width:0.13570039px;stroke-linecap:butt;stroke-linejoin:miter;stroke-opacity:1"
       d="m 67.272231,49.093488 c 3.802317,-2.474742 12.409763,-7.34306 20.53205,-11.177666 8.122287,-3.834606 16.539129,-10.141274 45.881459,-4.322502 -0.19376,-0.620209 -5.54009,-2.486939 -5.81288,-3.054445 -0.27279,-0.567519 4.6088,-1.527828 4.26099,-2.035889 -1.2022,-1.398551 -6.17218,-2.000067 -8.7305,-1.422413 -0.41883,-0.441834 4.80116,-2.393783 4.31534,-2.76262 -2.13811,-0.873786 -12.51278,4.067272 -13.06157,3.778209 -2.49599,0.142343 8.35411,-7.202314 5.98617,-6.888014 -2.36793,0.314304 -15.65905,6.930544 -17.89085,7.3931 -2.2318,0.462557 4.0939,-3.573494 2.00632,-2.986382 -3.75203,0.698384 -12.588479,5.797394 -14.523779,6.485358 -1.93529,0.687967 2.28715,-3.886818 0.51223,-3.121705 -1.77494,0.765116 -9.547235,6.870127 -11.153745,7.68868 -1.60647,0.818564 0.78512,-3.601211 -0.64485,-2.752913 -1.42995,0.848305 -6.681471,6.96469 -7.926826,7.819029 -1.245359,0.854345 -2.751317,-8.178573 -3.803994,-7.341891 -1.052676,0.836682 -2.181301,9.627654 -3.033218,10.422971 -2.747442,3.446503 -6.003937,-1.727925 -6.641557,-2.591056 0.679468,3.217048 4.901818,11.776791 -0.261304,9.578008 0.24427,3.413049 0.352652,6.216477 3.359881,7.738311 3.007229,1.521834 6.880178,-2.662531 5.129816,-2.594422 -2.264238,-1.827079 -2.124612,-3.952889 1.500817,-7.851748 z"
       id="path61-6-9"
       inkscape:connector-curvature="0"
       sodipodi:nodetypes="czcccccccccccccccccczcc" />
    <ellipse
       style="fill:#ffffff;fill-opacity:0.655501;fill-rule:evenodd;stroke:none;stroke-width:0.27443257;stroke-opacity:1"
       id="path82-5-9-0"
       ry="10.577021"
       rx="9.7409382"
       cy="-102.3089"
       cx="69.654213"
       transform="matrix(-0.2339055,0.97225934,-0.9939922,-0.1094509,0,0)" />
    <ellipse
       style="fill:#000000;fill-opacity:1;fill-rule:evenodd;stroke:none;stroke-width:0.26696214;stroke-opacity:1"
       id="path82-5"
       ry="9.4987097"
       rx="8.8707628"
       cy="76.774513"
       cx="83.714828" />
    <ellipse
       style="fill:#000000;fill-opacity:0.61387126;fill-rule:evenodd;stroke:none;stroke-width:0.28378108;stroke-opacity:1"
       id="path82-5-9"
       ry="10.287226"
       rx="9.2553921"
       cy="-101.66119"
       cx="49.419228"
       transform="matrix(-0.26614405,0.96393327,-0.95488652,-0.29697094,0,0)" />
    <ellipse
       style="fill:#eeecf9;fill-opacity:1;fill-rule:evenodd;stroke:none;stroke-width:0.21376134;stroke-opacity:1"
       id="path82"
       ry="7.8300653"
       rx="6.8995237"
       cy="77.46891"
       cx="83.235725" />
    <path
       style="fill:#000000;fill-opacity:1;stroke:#000000;stroke-width:0.36000323px;stroke-linecap:butt;stroke-linejoin:miter;stroke-opacity:1"
       d="m 71.392131,75.168352 c -0.08732,-5.258796 6.417157,-6.121635 10.307181,-7.614636 9.373683,-2.435048 8.704973,-1.593392 18.513288,-1.669537 2.58832,0.476263 12.204,1.825917 12.204,1.825917 0,0 -24.478785,-0.656494 -33.608879,4.055181 -2.036551,1.087643 -5.360092,2.357459 -7.415592,3.403067 z"
       id="path69"
       inkscape:connector-curvature="0"
       sodipodi:nodetypes="ccccccc" />
    <ellipse
       style="fill:#ffffff;fill-opacity:1;fill-rule:evenodd;stroke:none;stroke-width:0.14049153;stroke-opacity:1"
       id="path82-7"
       ry="5.132966"
       rx="4.5463009"
       cy="77.513687"
       cx="82.59304" />
    <ellipse
       style="fill:#000000;fill-opacity:1;stroke:#000000;stroke-width:0.48487705;stroke-opacity:1"
       id="path4346"
       cx="81.837616"
       cy="77.581497"
       rx="3.4769502"
       ry="3.6308739" />
    <path
       style="fill:#000000;fill-opacity:0.48069416;stroke:none;stroke-width:0.45041302px;stroke-linecap:butt;stroke-linejoin:miter;stroke-opacity:1"
       d="m 72.327586,78.405685 c -5.39045,-6.600413 7.589398,-8.370093 11.966119,-10.261516 10.42905,-2.889493 9.61761,-1.724924 20.280685,-1.201577 14.98583,-0.755286 13.45708,4.376245 13.45708,4.376245 0,0 -26.910005,-3.48992 -37.304291,2.682034 -2.322242,1.429316 -6.061012,3.037024 -8.399595,4.404804 z"
       id="path69-2"
       inkscape:connector-curvature="0"
       sodipodi:nodetypes="ccccccc" />
    <path
       style="fill:#621d1a;fill-opacity:1;stroke:none;stroke-width:0.38140145px;stroke-linecap:butt;stroke-linejoin:miter;stroke-opacity:1"
       d="m 102.76268,108.49437 c -0.4973,5.14048 -11.532112,3.03621 -23.606663,-0.0358 -15.487,-3.94022 -23.576848,-29.399314 -17.038746,-29.157829 7.014072,-2.228111 9.996986,2.677524 16.408912,15.484454 8.492212,10.611845 25.984697,-4.361669 24.236497,13.709175 z"
       id="path4357-6"
       inkscape:connector-curvature="0"
       sodipodi:nodetypes="ssccs" />
    <path
       style="fill:#c85933;fill-opacity:1;stroke:none;stroke-width:0.30773449px;stroke-linecap:butt;stroke-linejoin:miter;stroke-opacity:1"
       d="m 101.13621,105.53146 c 1.3161,11.03985 -42.898628,-3.11477 -64.088506,14.85199 9.320008,-11.48906 11.258036,-13.11686 24.255297,-15.03 13.25445,1.1796 37.6228,-11.718085 39.833209,0.17801 z"
       id="path4365"
       inkscape:connector-curvature="0"
       sodipodi:nodetypes="cccc" />
    <path
       style="fill:#430600;fill-opacity:0.71498724;stroke:none;stroke-width:0.18860415px;stroke-linecap:butt;stroke-linejoin:miter;stroke-opacity:1"
       d="m 100.51587,106.64641 c -4.254897,5.86308 -1.443169,-1.7573 -16.927756,1.44143 -8.756029,1.80878 -20.272088,-1.03042 -32.319889,1.36994 5.178559,-7.7668 18.764425,-4.17978 25.986207,-5.47309 5.42421,0.77212 24.552918,-5.403375 23.261438,2.66172 z"
       id="path4365-0"
       inkscape:connector-curvature="0"
       sodipodi:nodetypes="csccc" />
    <path
       style="fill:#fbea14;fill-opacity:1;stroke:none;stroke-width:0.30773449px;stroke-linecap:butt;stroke-linejoin:miter;stroke-opacity:1"
       d="m 99.612321,104.39953 c 0.662259,1.41183 -1.241498,2.14273 -1.965382,2.19376 -1.882542,0.1327 -1.647765,-2.90845 -12.154146,-0.78123 -10.506381,2.12722 -29.778239,1.11153 -38.381862,6.1114 -8.603624,4.99986 -4.828721,8.84928 -5.063111,16.30619 C 33.198712,114.92563 23.134299,101.81844 31.317466,90.66921 39.500633,79.51998 58.554788,76.356855 62.962725,76.151353 c 4.407938,-0.205501 6.657163,2.705672 8.131629,6.531142 2.755741,9.98064 11.237359,20.432175 15.915642,20.249115 4.678283,-0.18306 10.187512,-3.680057 12.602325,1.46792 z"
       id="path4357"
       inkscape:connector-curvature="0"
       sodipodi:nodetypes="sszsczzczs" />
    <path
       style="fill:#000000;fill-opacity:0.26865163;stroke:none;stroke-width:0.25020558px;stroke-linecap:butt;stroke-linejoin:miter;stroke-opacity:1"
       d="m 87.095507,51.002934 c 79.122513,-25.86563 71.232113,32.331603 68.065753,51.432276 2.54197,-3.488489 6.03941,-12.874319 9.60801,-16.644669 -4.94302,-2.13481 -6.51933,-7.44131 1.72027,-10.013533 -5.36442,-7.881169 -9.1572,-5.945996 -1.19857,-12.54984 -5.47601,-5.013493 -13.65385,-7.029619 -5.14926,-12.062018 -10.68346,-3.422116 -19.63367,-3.989691 -12.14879,-11.530055 -14.59217,3.266975 -28.26587,2.540215 -17.58124,-3.529915 -6.03703,-0.30972 -23.64807,9.109384 -19.67105,2.973173 -6.75817,1.243183 -16.656516,9.01472 -23.645123,11.924581 z"
       id="path61-3"
       inkscape:connector-curvature="0"
       sodipodi:nodetypes="cccccccccc" />
    <path
       style="fill:#b828e6;fill-opacity:1;stroke:none;stroke-width:0.04169294px;stroke-linecap:butt;stroke-linejoin:miter;stroke-opacity:1"
       d="m 64.521894,84.862513 c 3.132159,1.83781 -0.360626,4.90688 -0.524324,5.56689 1.872793,-0.55961 3.375586,-2.07746 3.908483,-4.02471 0.603006,-6.17444 -4.071213,-8.46772 -6.449948,-6.57858 -2.054777,4.04049 1.984678,4.09181 3.065789,5.0364 z"
       id="path4357-5"
       inkscape:connector-curvature="0"
       sodipodi:nodetypes="ccccc" />
    <path
       style="fill:#ffffff;fill-opacity:0.65079166;stroke:none;stroke-width:0.18515687px;stroke-linecap:butt;stroke-linejoin:miter;stroke-opacity:1"
       d="m 73.002173,94.428215 c -19.718643,4.84208 -38.180529,0.53826 -37.147801,16.987605 -6.443099,-5.72836 -5.34964,-13.65384 -0.679272,-21.161945 2.968373,-4.91389 14.299891,-8.592904 17.753683,-3.30467 2.327041,4.97135 6.353855,9.54585 10.424318,7.94168 4.070468,-1.60415 9.036182,-2.91801 9.649072,-0.46267 z"
       id="path4357-1"
       inkscape:connector-curvature="0"
       sodipodi:nodetypes="cccczc" />
    <path
       style="fill:#000000;fill-opacity:0.16969646;stroke:none;stroke-width:0.15098815px;stroke-linecap:butt;stroke-linejoin:miter;stroke-opacity:1"
       d="m 146.61853,99.775719 c 1.88043,7.161431 0.66679,15.525391 -5.14455,12.369771 -10.49115,-1.98223 -16.3145,-3.8118 -42.054343,-0.23745 26.577503,-7.76073 41.231563,-1.81003 47.198893,-12.132321 z"
       id="path4350-7"
       inkscape:connector-curvature="0"
       sodipodi:nodetypes="cccc" />
    <ellipse
       style="fill:#ffffff;fill-opacity:0.76042253;stroke:none;stroke-width:0.12986819;stroke-opacity:1"
       id="path4346-6"
       cx="80.675133"
       cy="75.991005"
       rx="1.1427467"
       ry="0.79250503" />
    <path
       style="fill:#000000;fill-opacity:0.51422658;stroke:none;stroke-width:0.02212039px;stroke-linecap:butt;stroke-linejoin:miter;stroke-opacity:1"
       d="m 66.653684,83.018877 c 0.990975,-1.50881 -2.226803,-3.26443 -3.939533,-2.52587 2.636231,1.90451 2.927409,3.79217 3.939533,2.52587 z"
       id="path4357-5-2"
       inkscape:connector-curvature="0"
       sodipodi:nodetypes="ccc" />
  </g>
</svg>
